<svg width="342" height="58" viewBox="0 0 342 58" fill="none" xmlns="http://www.w3.org/2000/svg">
<rect width="58" height="58" fill="#001A41"/>
<path d="M79.605 39.35C77.9017 39.35 76.4083 39.035 75.125 38.405C73.8417 37.7517 72.85 36.8533 72.15 35.71C71.45 34.5433 71.1 33.19 71.1 31.65V27.1C71.1 25.5367 71.45 24.1833 72.15 23.04C72.85 21.8967 73.8417 21.01 75.125 20.38C76.4083 19.7267 77.9017 19.4 79.605 19.4C82.1483 19.4 84.1783 20.0417 85.695 21.325C87.2117 22.6083 88.0167 24.3583 88.11 26.575H82.86C82.79 25.7583 82.4633 25.1167 81.88 24.65C81.32 24.1833 80.5617 23.95 79.605 23.95C78.555 23.95 77.75 24.2183 77.19 24.755C76.63 25.2917 76.35 26.0733 76.35 27.1V31.65C76.35 32.6533 76.63 33.435 77.19 33.995C77.75 34.5317 78.555 34.8 79.605 34.8C80.5617 34.8 81.32 34.5783 81.88 34.135C82.4633 33.6683 82.79 33.015 82.86 32.175H88.11C88.0167 34.3917 87.2117 36.1417 85.695 37.425C84.1783 38.7083 82.1483 39.35 79.605 39.35ZM100.486 39.35C97.8963 39.35 95.8663 38.65 94.3963 37.25C92.9497 35.85 92.2263 33.9367 92.2263 31.51V19.75H97.4763V31.475C97.4763 32.5483 97.733 33.3767 98.2463 33.96C98.7597 34.52 99.5063 34.8 100.486 34.8C101.443 34.8 102.178 34.52 102.691 33.96C103.228 33.3767 103.496 32.5483 103.496 31.475V19.75H108.746V31.51C108.746 33.96 108.011 35.885 106.541 37.285C105.071 38.6617 103.053 39.35 100.486 39.35ZM121.508 39.35C119.804 39.35 118.311 39.035 117.028 38.405C115.768 37.7517 114.788 36.8533 114.088 35.71C113.411 34.5433 113.073 33.19 113.073 31.65V27.1C113.073 25.56 113.411 24.2183 114.088 23.075C114.788 21.9083 115.768 21.01 117.028 20.38C118.311 19.7267 119.804 19.4 121.508 19.4C123.211 19.4 124.681 19.7267 125.918 20.38C127.178 21.01 128.146 21.9083 128.823 23.075C129.523 24.2183 129.873 25.56 129.873 27.1V30.6H118.078V31.65C118.078 32.8633 118.369 33.785 118.953 34.415C119.536 35.0217 120.411 35.325 121.578 35.325C122.394 35.325 123.048 35.185 123.538 34.905C124.051 34.625 124.389 34.24 124.553 33.75H129.698C129.278 35.43 128.321 36.7833 126.828 37.81C125.358 38.8367 123.584 39.35 121.508 39.35ZM124.868 27.905V27.03C124.868 25.84 124.588 24.93 124.028 24.3C123.491 23.67 122.651 23.355 121.508 23.355C120.364 23.355 119.501 23.6817 118.918 24.335C118.358 24.9883 118.078 25.91 118.078 27.1V27.625L125.218 27.555L124.868 27.905ZM134.269 39V19.75H139.344V23.425H140.884L139.344 24.65C139.344 23.0167 139.811 21.7333 140.744 20.8C141.677 19.8667 142.937 19.4 144.524 19.4C146.391 19.4 147.884 20.0533 149.004 21.36C150.147 22.6667 150.719 24.405 150.719 26.575V39H145.469V27.1C145.469 26.0967 145.201 25.3267 144.664 24.79C144.151 24.23 143.416 23.95 142.459 23.95C141.526 23.95 140.802 24.23 140.289 24.79C139.776 25.3267 139.519 26.0967 139.519 27.1V39H134.269ZM165.545 39C163.585 39 162.045 38.44 160.925 37.32C159.805 36.2 159.245 34.66 159.245 32.7V24.475H154.17V19.75H159.245V14.325H164.495V19.75H171.67V24.475H164.495V32.7C164.495 33.75 165.02 34.275 166.07 34.275H171.32V39H165.545ZM181.947 39.35C180.01 39.35 178.47 38.825 177.327 37.775C176.207 36.725 175.647 35.3017 175.647 33.505C175.647 31.5683 176.312 30.0867 177.642 29.06C178.995 28.01 180.932 27.485 183.452 27.485H187.442V26.05C187.442 25.3033 187.173 24.7083 186.637 24.265C186.123 23.8217 185.423 23.6 184.537 23.6C183.72 23.6 183.043 23.7867 182.507 24.16C181.97 24.5333 181.643 25.0467 181.527 25.7H176.452C176.662 23.7633 177.502 22.235 178.972 21.115C180.465 19.9717 182.378 19.4 184.712 19.4C187.162 19.4 189.098 20.0067 190.522 21.22C191.968 22.41 192.692 24.02 192.692 26.05V39H187.617V35.85H186.777L187.652 34.625C187.652 36.0717 187.127 37.2267 186.077 38.09C185.05 38.93 183.673 39.35 181.947 39.35ZM183.907 35.5C184.933 35.5 185.773 35.2317 186.427 34.695C187.103 34.135 187.442 33.4117 187.442 32.525V30.46H183.557C182.763 30.46 182.122 30.6933 181.632 31.16C181.142 31.6033 180.897 32.1983 180.897 32.945C180.897 33.7383 181.165 34.3683 181.702 34.835C182.238 35.2783 182.973 35.5 183.907 35.5ZM204.613 39.35C203.026 39.35 201.638 39.105 200.448 38.615C199.258 38.1017 198.325 37.4017 197.648 36.515C196.995 35.6283 196.668 34.59 196.668 33.4H201.918C201.918 33.96 202.163 34.415 202.653 34.765C203.166 35.0917 203.82 35.255 204.613 35.255H206.153C207.11 35.255 207.833 35.08 208.323 34.73C208.836 34.38 209.093 33.89 209.093 33.26C209.093 32.6767 208.871 32.2333 208.428 31.93C207.985 31.6033 207.296 31.3817 206.363 31.265L204.123 30.985C201.72 30.6817 199.97 30.0983 198.873 29.235C197.776 28.3717 197.228 27.0533 197.228 25.28C197.228 23.4133 197.87 21.9667 199.153 20.94C200.436 19.9133 202.315 19.4 204.788 19.4H206.118C208.475 19.4 210.353 19.9133 211.753 20.94C213.153 21.9667 213.853 23.3433 213.853 25.07H208.603C208.603 24.6033 208.37 24.23 207.903 23.95C207.46 23.6467 206.865 23.495 206.118 23.495H204.788C203.925 23.495 203.295 23.6467 202.898 23.95C202.501 24.23 202.303 24.6617 202.303 25.245C202.303 25.7817 202.478 26.19 202.828 26.47C203.201 26.75 203.785 26.9483 204.578 27.065L206.993 27.38C209.42 27.6833 211.216 28.29 212.383 29.2C213.573 30.11 214.168 31.4633 214.168 33.26C214.168 35.22 213.491 36.725 212.138 37.775C210.785 38.825 208.79 39.35 206.153 39.35H204.613ZM226.509 39.35C224.806 39.35 223.313 39.035 222.029 38.405C220.746 37.7517 219.754 36.8533 219.054 35.71C218.354 34.5433 218.004 33.19 218.004 31.65V27.1C218.004 25.5367 218.354 24.1833 219.054 23.04C219.754 21.8967 220.746 21.01 222.029 20.38C223.313 19.7267 224.806 19.4 226.509 19.4C229.053 19.4 231.083 20.0417 232.599 21.325C234.116 22.6083 234.921 24.3583 235.014 26.575H229.764C229.694 25.7583 229.368 25.1167 228.784 24.65C228.224 24.1833 227.466 23.95 226.509 23.95C225.459 23.95 224.654 24.2183 224.094 24.755C223.534 25.2917 223.254 26.0733 223.254 27.1V31.65C223.254 32.6533 223.534 33.435 224.094 33.995C224.654 34.5317 225.459 34.8 226.509 34.8C227.466 34.8 228.224 34.5783 228.784 34.135C229.368 33.6683 229.694 33.015 229.764 32.175H235.014C234.921 34.3917 234.116 36.1417 232.599 37.425C231.083 38.7083 229.053 39.35 226.509 39.35ZM250.541 39C249.187 39 247.997 38.72 246.971 38.16C245.944 37.5767 245.139 36.7717 244.556 35.745C243.996 34.7183 243.716 33.5283 243.716 32.175V18.175H237.766V13.45H248.966V32.175C248.966 32.805 249.152 33.3183 249.526 33.715C249.922 34.0883 250.436 34.275 251.066 34.275H256.666V39H250.541ZM265.892 39.35C263.955 39.35 262.415 38.825 261.272 37.775C260.152 36.725 259.592 35.3017 259.592 33.505C259.592 31.5683 260.257 30.0867 261.587 29.06C262.94 28.01 264.877 27.485 267.397 27.485H271.387V26.05C271.387 25.3033 271.119 24.7083 270.582 24.265C270.069 23.8217 269.369 23.6 268.482 23.6C267.665 23.6 266.989 23.7867 266.452 24.16C265.915 24.5333 265.589 25.0467 265.472 25.7H260.397C260.607 23.7633 261.447 22.235 262.917 21.115C264.41 19.9717 266.324 19.4 268.657 19.4C271.107 19.4 273.044 20.0067 274.467 21.22C275.914 22.41 276.637 24.02 276.637 26.05V39H271.562V35.85H270.722L271.597 34.625C271.597 36.0717 271.072 37.2267 270.022 38.09C268.995 38.93 267.619 39.35 265.892 39.35ZM267.852 35.5C268.879 35.5 269.719 35.2317 270.372 34.695C271.049 34.135 271.387 33.4117 271.387 32.525V30.46H267.502C266.709 30.46 266.067 30.6933 265.577 31.16C265.087 31.6033 264.842 32.1983 264.842 32.945C264.842 33.7383 265.11 34.3683 265.647 34.835C266.184 35.2783 266.919 35.5 267.852 35.5ZM281.733 39V19.75H286.633V23.425H287.963L286.458 25.665C286.458 23.5883 286.937 22.025 287.893 20.975C288.85 19.925 290.25 19.4 292.093 19.4C294.217 19.4 295.862 20.0417 297.028 21.325C298.218 22.6083 298.813 24.4167 298.813 26.75V28.325H293.213V27.1C293.213 26.05 292.922 25.2333 292.338 24.65C291.778 24.0667 291.02 23.775 290.063 23.775C289.06 23.775 288.29 24.0667 287.753 24.65C287.24 25.2333 286.983 26.05 286.983 27.1V39H281.733ZM307.865 39.35C305.928 39.35 304.388 38.825 303.245 37.775C302.125 36.725 301.565 35.3017 301.565 33.505C301.565 31.5683 302.23 30.0867 303.56 29.06C304.913 28.01 306.85 27.485 309.37 27.485H313.36V26.05C313.36 25.3033 313.091 24.7083 312.555 24.265C312.041 23.8217 311.341 23.6 310.455 23.6C309.638 23.6 308.961 23.7867 308.425 24.16C307.888 24.5333 307.561 25.0467 307.445 25.7H302.37C302.58 23.7633 303.42 22.235 304.89 21.115C306.383 19.9717 308.296 19.4 310.63 19.4C313.08 19.4 315.016 20.0067 316.44 21.22C317.886 22.41 318.61 24.02 318.61 26.05V39H313.535V35.85H312.695L313.57 34.625C313.57 36.0717 313.045 37.2267 311.995 38.09C310.968 38.93 309.591 39.35 307.865 39.35ZM309.825 35.5C310.851 35.5 311.691 35.2317 312.345 34.695C313.021 34.135 313.36 33.4117 313.36 32.525V30.46H309.475C308.681 30.46 308.04 30.6933 307.55 31.16C307.06 31.6033 306.815 32.1983 306.815 32.945C306.815 33.7383 307.083 34.3683 307.62 34.835C308.156 35.2783 308.891 35.5 309.825 35.5ZM330.531 39.35C328.944 39.35 327.556 39.105 326.366 38.615C325.176 38.1017 324.243 37.4017 323.566 36.515C322.913 35.6283 322.586 34.59 322.586 33.4H327.836C327.836 33.96 328.081 34.415 328.571 34.765C329.084 35.0917 329.738 35.255 330.531 35.255H332.071C333.028 35.255 333.751 35.08 334.241 34.73C334.754 34.38 335.011 33.89 335.011 33.26C335.011 32.6767 334.789 32.2333 334.346 31.93C333.903 31.6033 333.214 31.3817 332.281 31.265L330.041 30.985C327.638 30.6817 325.888 30.0983 324.791 29.235C323.694 28.3717 323.146 27.0533 323.146 25.28C323.146 23.4133 323.788 21.9667 325.071 20.94C326.354 19.9133 328.233 19.4 330.706 19.4H332.036C334.393 19.4 336.271 19.9133 337.671 20.94C339.071 21.9667 339.771 23.3433 339.771 25.07H334.521C334.521 24.6033 334.288 24.23 333.821 23.95C333.378 23.6467 332.783 23.495 332.036 23.495H330.706C329.843 23.495 329.213 23.6467 328.816 23.95C328.419 24.23 328.221 24.6617 328.221 25.245C328.221 25.7817 328.396 26.19 328.746 26.47C329.119 26.75 329.703 26.9483 330.496 27.065L332.911 27.38C335.338 27.6833 337.134 28.29 338.301 29.2C339.491 30.11 340.086 31.4633 340.086 33.26C340.086 35.22 339.409 36.725 338.056 37.775C336.703 38.825 334.708 39.35 332.071 39.35H330.531Z" fill="#001A41"/>
<path d="M18.6187 39.35C16.9153 39.35 15.422 39.035 14.1387 38.405C12.8553 37.7517 11.8637 36.8533 11.1637 35.71C10.4637 34.5433 10.1137 33.19 10.1137 31.65V27.1C10.1137 25.5367 10.4637 24.1833 11.1637 23.04C11.8637 21.8967 12.8553 21.01 14.1387 20.38C15.422 19.7267 16.9153 19.4 18.6187 19.4C21.162 19.4 23.192 20.0417 24.7087 21.325C26.2253 22.6083 27.0303 24.3583 27.1237 26.575H21.8737C21.8037 25.7583 21.477 25.1167 20.8937 24.65C20.3337 24.1833 19.5753 23.95 18.6187 23.95C17.5687 23.95 16.7637 24.2183 16.2037 24.755C15.6437 25.2917 15.3637 26.0733 15.3637 27.1V31.65C15.3637 32.6533 15.6437 33.435 16.2037 33.995C16.7637 34.5317 17.5687 34.8 18.6187 34.8C19.5753 34.8 20.3337 34.5783 20.8937 34.135C21.477 33.6683 21.8037 33.015 21.8737 32.175H27.1237C27.0303 34.3917 26.2253 36.1417 24.7087 37.425C23.192 38.7083 21.162 39.35 18.6187 39.35ZM39.605 39.35C37.9017 39.35 36.4083 39.035 35.125 38.405C33.8417 37.7517 32.85 36.8533 32.15 35.71C31.45 34.5433 31.1 33.19 31.1 31.65V27.1C31.1 25.5367 31.45 24.1833 32.15 23.04C32.85 21.8967 33.8417 21.01 35.125 20.38C36.4083 19.7267 37.9017 19.4 39.605 19.4C42.1483 19.4 44.1783 20.0417 45.695 21.325C47.2117 22.6083 48.0167 24.3583 48.11 26.575H42.86C42.79 25.7583 42.4633 25.1167 41.88 24.65C41.32 24.1833 40.5617 23.95 39.605 23.95C38.555 23.95 37.75 24.2183 37.19 24.755C36.63 25.2917 36.35 26.0733 36.35 27.1V31.65C36.35 32.6533 36.63 33.435 37.19 33.995C37.75 34.5317 38.555 34.8 39.605 34.8C40.5617 34.8 41.32 34.5783 41.88 34.135C42.4633 33.6683 42.79 33.015 42.86 32.175H48.11C48.0167 34.3917 47.2117 36.1417 45.695 37.425C44.1783 38.7083 42.1483 39.35 39.605 39.35Z" fill="#D8E2FF"/>
</svg>
