<svg width="58" height="58" viewBox="0 0 58 58" fill="none" xmlns="http://www.w3.org/2000/svg">
<rect width="58" height="58" fill="#001A41"/>
<path d="M18.6187 39.35C16.9153 39.35 15.422 39.035 14.1387 38.405C12.8553 37.7517 11.8637 36.8533 11.1637 35.71C10.4637 34.5433 10.1137 33.19 10.1137 31.65V27.1C10.1137 25.5367 10.4637 24.1833 11.1637 23.04C11.8637 21.8967 12.8553 21.01 14.1387 20.38C15.422 19.7267 16.9153 19.4 18.6187 19.4C21.162 19.4 23.192 20.0417 24.7087 21.325C26.2253 22.6083 27.0303 24.3583 27.1237 26.575H21.8737C21.8037 25.7583 21.477 25.1167 20.8937 24.65C20.3337 24.1833 19.5753 23.95 18.6187 23.95C17.5687 23.95 16.7637 24.2183 16.2037 24.755C15.6437 25.2917 15.3637 26.0733 15.3637 27.1V31.65C15.3637 32.6533 15.6437 33.435 16.2037 33.995C16.7637 34.5317 17.5687 34.8 18.6187 34.8C19.5753 34.8 20.3337 34.5783 20.8937 34.135C21.477 33.6683 21.8037 33.015 21.8737 32.175H27.1237C27.0303 34.3917 26.2253 36.1417 24.7087 37.425C23.192 38.7083 21.162 39.35 18.6187 39.35ZM39.605 39.35C37.9017 39.35 36.4083 39.035 35.125 38.405C33.8417 37.7517 32.85 36.8533 32.15 35.71C31.45 34.5433 31.1 33.19 31.1 31.65V27.1C31.1 25.5367 31.45 24.1833 32.15 23.04C32.85 21.8967 33.8417 21.01 35.125 20.38C36.4083 19.7267 37.9017 19.4 39.605 19.4C42.1483 19.4 44.1783 20.0417 45.695 21.325C47.2117 22.6083 48.0167 24.3583 48.11 26.575H42.86C42.79 25.7583 42.4633 25.1167 41.88 24.65C41.32 24.1833 40.5617 23.95 39.605 23.95C38.555 23.95 37.75 24.2183 37.19 24.755C36.63 25.2917 36.35 26.0733 36.35 27.1V31.65C36.35 32.6533 36.63 33.435 37.19 33.995C37.75 34.5317 38.555 34.8 39.605 34.8C40.5617 34.8 41.32 34.5783 41.88 34.135C42.4633 33.6683 42.79 33.015 42.86 32.175H48.11C48.0167 34.3917 47.2117 36.1417 45.695 37.425C44.1783 38.7083 42.1483 39.35 39.605 39.35Z" fill="#D8E2FF"/>
</svg>
